<svg version="1.1" id="Layer_1" xmlns="http://www.w3.org/2000/svg" xmlns:xlink="http://www.w3.org/1999/xlink" x="0px" y="0px"
	 width="100%" viewBox="0 0 3544 1597" enable-background="new 0 0 3544 1597" xml:space="preserve">
<path fill="#fff" opacity="1.000000" stroke="none" 
	d="
M2414.000000,1600.000000 
	C1609.333374,1600.000000 805.666687,1600.000000 2.000000,1600.000000 
	C2.000000,1067.333374 2.000000,534.666687 2.000000,2.000000 
	C1183.333374,2.000000 2364.666748,2.000000 3546.000000,2.000000 
	C3546.000000,534.666687 3546.000000,1067.333374 3546.000000,1600.000000 
	C3169.000000,1600.000000 2792.000000,1600.000000 2414.000000,1600.000000 
M541.796692,869.901428 
	C541.796692,869.901428 541.119690,870.062195 540.634644,870.250732 
	C540.330200,870.454895 540.141663,870.736633 539.862732,871.745789 
	C539.862732,871.745789 539.211792,871.948425 538.466553,871.873291 
	C537.827820,872.134949 537.189087,872.396545 535.864746,874.006836 
	C524.810974,884.850037 513.757202,895.693237 502.200439,907.046814 
	C502.113190,907.783569 502.025970,908.520264 501.867950,909.839600 
	C501.867950,909.839600 501.312103,910.027832 500.710999,910.288879 
	C500.337402,910.560913 500.114349,910.925171 499.352234,912.594360 
	C492.359558,919.652405 485.057953,926.434509 478.448120,933.834534 
	C469.007782,944.403442 460.033417,955.390930 450.931488,966.259460 
	C424.610504,997.689087 400.566437,1030.611328 380.236511,1066.398071 
	C369.676270,1084.987183 360.838745,1104.083862 353.575195,1124.009399 
	C350.445160,1132.595825 347.353790,1141.513062 346.428223,1150.504761 
	C345.316528,1161.305298 346.426208,1172.348877 346.766632,1183.281128 
	C347.237976,1198.416260 355.827179,1208.791138 367.789734,1216.428711 
	C373.293945,1219.942993 379.992859,1221.585938 387.530670,1224.203003 
	C388.915283,1224.191162 390.299896,1224.179321 391.838318,1224.031738 
	C391.838318,1224.031738 391.962158,1224.195190 393.193237,1225.319214 
	C401.393005,1225.568115 409.593750,1226.003540 417.792053,1225.962280 
	C420.564758,1225.948364 423.331390,1224.728394 427.748810,1223.529297 
	C431.585510,1223.543213 435.111511,1224.454834 439.143372,1222.047729 
	C443.408142,1219.501221 449.043030,1219.323730 454.002441,1217.851929 
	C467.814697,1213.752808 481.930817,1210.389038 495.285309,1205.111328 
	C510.866516,1198.953857 525.851257,1191.247803 540.940796,1183.897339 
	C554.584778,1177.250977 568.373108,1170.780640 581.454834,1163.132812 
	C595.754761,1154.772949 609.376526,1145.240601 623.183533,1136.053467 
	C637.285645,1126.669922 651.211365,1117.021606 665.300049,1107.617432 
	C671.519531,1103.465942 677.950317,1099.630981 685.463867,1096.294312 
	C709.645935,1117.619873 734.464600,1138.227783 761.379272,1155.975952 
	C785.020996,1171.565918 809.183289,1186.471924 833.873962,1200.328735 
	C850.628113,1209.731812 868.348572,1217.682495 886.266296,1224.668823 
	C905.130676,1232.024170 924.758362,1237.415283 944.025818,1243.745850 
	C962.891541,1249.944458 982.317200,1253.064697 1003.219727,1255.501343 
	C1006.780945,1255.684204 1010.342163,1255.867065 1015.639709,1255.885620 
	C1019.112488,1256.116455 1022.585205,1256.347290 1027.376465,1257.540894 
	C1037.564087,1257.228516 1047.751587,1256.916016 1059.781494,1256.280273 
	C1066.757202,1256.165283 1073.924194,1257.038086 1080.668945,1255.730957 
	C1095.021606,1252.949219 1109.287476,1249.499878 1123.350586,1245.488525 
	C1152.787476,1237.091553 1179.179443,1222.495972 1201.979858,1202.306030 
	C1220.677979,1185.748535 1235.922852,1166.028320 1247.891602,1143.884521 
	C1271.444946,1100.307861 1280.535645,1053.252197 1281.634399,1004.321533 
	C1282.458862,967.600525 1277.266235,931.424133 1269.135132,895.773193 
	C1258.223267,847.929382 1241.218140,802.127808 1219.718140,758.024597 
	C1199.650269,716.858765 1176.065552,677.804016 1149.445190,640.521484 
	C1128.622925,611.359070 1105.757812,583.862976 1081.579224,557.532349 
	C1066.352417,540.950256 1049.530273,525.809448 1033.129028,510.334534 
	C1006.295654,485.016785 977.092407,462.657806 946.662598,441.844513 
	C902.242676,411.462189 854.910522,386.681854 804.191650,368.707672 
	C769.171326,356.296844 732.957092,348.755951 695.179565,344.608978 
	C693.517273,344.749451 691.854919,344.889923 688.624146,345.254333 
	C687.603516,345.039886 686.582886,344.825439 684.174988,344.043365 
	C676.945862,344.201538 669.716736,344.359741 660.892761,345.056580 
	C659.219238,345.088837 657.545654,345.121063 655.222839,344.506805 
	C654.173035,344.794708 653.123169,345.082611 650.293335,345.731506 
	C631.992798,348.585297 613.175964,349.660339 595.533569,354.781433 
	C577.028564,360.152954 558.883301,367.501404 542.267090,378.093140 
	C520.700256,391.840576 501.635681,408.085999 486.061859,428.457825 
	C473.018311,445.519806 462.381226,463.992004 454.623566,483.900299 
	C448.912750,498.555817 444.150696,513.697388 440.432922,528.979309 
	C436.965363,543.232910 436.645477,558.062927 435.431061,572.727722 
	C432.300812,610.527588 435.075378,648.027832 440.522919,685.315247 
	C443.024231,702.436340 447.444336,719.418640 452.531433,735.992126 
	C464.531830,775.088806 479.514160,813.091370 497.466034,849.872620 
	C499.851685,854.760559 502.946442,859.302490 505.894226,864.313049 
	C514.472595,856.473999 522.355042,849.374329 530.124573,842.153320 
	C565.549377,809.229370 602.499878,778.112793 640.794373,748.584717 
	C651.321655,740.467407 652.866638,735.156555 648.052307,722.693970 
	C636.008484,691.516846 626.673279,659.641418 623.118591,626.276611 
	C620.024902,597.239319 620.289001,568.327759 628.298279,540.019958 
	C642.759827,488.907532 674.457764,454.483185 726.670288,440.871185 
	C752.540588,434.126678 778.783813,434.648560 805.022095,439.009064 
	C845.647278,445.760498 883.056396,461.172485 918.485474,481.645599 
	C983.482178,519.204834 1037.443604,569.219788 1082.629395,628.842041 
	C1124.293823,683.817871 1156.232788,743.767090 1173.115112,811.067383 
	C1183.116699,850.938293 1186.601440,891.250244 1177.918701,931.823242 
	C1169.157715,972.761902 1148.801147,1005.996216 1111.429688,1027.064209 
	C1088.223267,1040.146729 1062.814575,1045.262573 1036.536499,1045.530029 
	C998.260010,1045.919922 961.919739,1036.490112 927.271301,1020.801575 
	C848.869080,985.301636 784.808777,931.611267 732.176941,863.969849 
	C734.362122,862.460266 736.455933,860.792542 738.748047,859.468079 
	C749.372314,853.329285 752.786804,854.193359 760.956421,863.105103 
	C773.561523,876.855286 786.229370,890.574097 799.431091,903.744385 
	C814.755493,919.032349 830.867859,933.498535 848.784180,946.196350 
	C849.973083,945.200439 851.068726,944.468445 851.938171,943.527344 
	C891.825317,900.358215 928.667480,854.846863 958.681763,804.125732 
	C971.764648,782.017151 983.275208,759.143005 990.974426,734.533264 
	C995.571716,719.838562 998.614319,704.877563 997.861450,689.346436 
	C996.658020,664.521545 982.468933,647.354675 958.306274,641.906982 
	C940.066040,637.794495 921.878723,639.511597 903.792603,643.138855 
	C869.253479,650.065796 836.973694,663.336670 805.595520,678.875244 
	C738.692749,712.005798 677.561279,754.033203 620.046326,801.339539 
	C593.820007,822.910828 568.759583,845.899597 542.644958,868.376648 
	C542.316711,868.583557 542.127319,868.879517 541.796692,869.901428 
M2953.394043,697.333069 
	C2953.394043,697.333069 2953.140625,697.686096 2951.733398,696.749634 
	C2945.489990,698.513977 2944.381104,700.399414 2945.391113,707.361572 
	C2945.391113,707.361572 2945.085693,707.679871 2943.737305,706.754395 
	C2942.768555,706.806091 2941.298340,706.465454 2940.905273,706.967773 
	C2934.053711,715.722046 2927.221680,724.498657 2920.737549,733.523621 
	C2919.977783,734.581055 2921.296875,737.131775 2921.365479,739.338562 
	C2921.365479,739.338562 2921.041992,739.653381 2919.700684,738.742920 
	C2918.742920,738.798828 2917.401367,738.463196 2916.884766,738.969421 
	C2909.368896,746.334290 2903.058350,754.605347 2899.028076,764.396545 
	C2898.523926,765.620972 2899.387207,767.408386 2899.374756,769.342102 
	C2899.374756,769.342102 2899.056885,769.693298 2897.726074,768.756836 
	C2897.073242,768.705322 2896.229980,768.361877 2895.795166,768.645203 
	C2885.437012,775.389648 2880.713379,786.544250 2874.410889,796.428528 
	C2873.841797,797.320801 2875.187012,799.433777 2875.415039,801.345276 
	C2875.415039,801.345276 2875.179443,801.706116 2873.806396,800.767700 
	C2872.568848,800.948608 2870.722900,800.671082 2870.187988,801.381226 
	C2864.957275,808.325684 2859.848389,815.369568 2854.992432,822.578918 
	C2854.377197,823.492371 2855.413574,825.518555 2855.389160,827.360352 
	C2855.389160,827.360352 2855.078369,827.676880 2853.725098,826.751038 
	C2847.913574,825.616089 2848.027100,832.201721 2844.276855,833.997986 
	C2838.901855,836.572510 2839.031006,840.886414 2841.550781,845.547729 
	C2841.550781,845.547729 2841.571045,845.890198 2840.068848,844.848938 
	C2836.449951,844.156494 2834.013428,845.500854 2832.063477,848.692017 
	C2830.444336,851.341492 2828.373291,853.845459 2826.052979,855.908508 
	C2821.246338,860.182678 2821.001221,860.820496 2823.838135,869.220886 
	C2822.197998,870.911499 2820.557617,872.602112 2817.407959,874.251953 
	C2813.820068,874.597717 2814.132324,877.366516 2813.471436,881.086914 
	C2802.951904,891.382874 2792.432373,901.678833 2780.398438,912.027954 
	C2777.158691,912.067566 2775.947021,913.822144 2775.579346,917.969910 
	C2764.408936,925.691345 2753.720215,934.277100 2741.912842,940.854919 
	C2732.811768,945.925232 2722.305420,948.473694 2711.601318,952.212097 
	C2711.044922,952.336792 2710.581055,952.615417 2708.799072,953.697693 
	C2706.239746,953.887451 2703.680176,954.077209 2700.036377,954.278198 
	C2699.410156,954.600403 2698.783691,954.922668 2696.334473,955.747742 
	C2687.504150,955.581848 2678.673584,955.416016 2668.987061,954.580444 
	C2668.270752,954.479492 2667.554199,954.378540 2665.349854,954.644836 
	C2662.853516,954.194275 2660.357422,953.743652 2657.115479,952.620056 
	C2656.461670,952.496643 2655.807861,952.373230 2653.659912,952.355164 
	C2621.659912,944.338379 2599.401611,925.155151 2587.621338,894.252075 
	C2579.593018,873.191040 2578.638916,851.372681 2582.296875,829.367310 
	C2586.233154,805.686584 2594.658936,783.877014 2612.507080,765.738342 
	C2616.206543,765.400452 2615.868164,762.575256 2616.452393,758.831604 
	C2619.009277,756.565979 2621.565918,754.300293 2625.622314,751.976624 
	C2628.803223,751.934021 2630.051270,750.235596 2630.450439,746.103149 
	C2647.921631,732.575256 2667.070557,722.792480 2690.186768,719.757202 
	C2690.834229,719.666504 2691.373535,719.375427 2693.376709,718.299194 
	C2697.228516,718.141846 2701.080322,717.984436 2706.980713,717.900757 
	C2717.610352,717.860413 2728.239990,717.820068 2740.530273,717.309814 
	C2745.744141,717.776550 2750.957764,718.243286 2757.119873,719.468140 
	C2758.326172,719.565002 2759.532715,719.661865 2762.236084,719.559265 
	C2764.205811,719.915833 2766.175293,720.272400 2769.005615,721.402527 
	C2770.141357,721.549927 2771.277100,721.697327 2773.805664,722.423706 
	C2788.911865,727.825134 2804.017822,733.226501 2820.100098,738.976868 
	C2830.573975,723.911926 2841.792236,707.776672 2853.697021,690.653809 
	C2844.309814,685.532776 2836.143799,680.515320 2827.519043,676.477173 
	C2800.378418,663.769775 2771.441895,657.481873 2741.379150,652.697510 
	C2740.304688,652.821411 2739.229980,652.945251 2736.589844,653.166443 
	C2735.585449,652.895020 2734.581299,652.623535 2732.985352,652.077209 
	C2732.543945,651.958069 2732.115967,651.994934 2729.867920,652.336365 
	C2715.841064,652.198547 2701.814209,652.060791 2686.501953,651.813599 
	C2685.647461,651.895325 2684.792969,651.976990 2682.769775,652.385071 
	C2681.967041,652.330139 2681.164062,652.275208 2679.673828,652.051147 
	C2679.182617,652.031189 2678.742432,652.171326 2676.933350,653.019043 
	C2675.925537,653.055908 2674.917969,653.092712 2673.512451,652.659668 
	C2672.840820,652.427246 2672.352051,652.644531 2670.292969,653.689514 
	C2636.651611,657.209839 2604.142578,664.813599 2572.988770,678.473999 
	C2548.562256,689.184387 2526.734131,703.450012 2507.585938,721.837891 
	C2492.961182,735.882141 2481.893066,752.504211 2472.466309,770.466553 
	C2461.277344,791.785950 2454.221436,814.044006 2453.929688,838.188232 
	C2453.760986,852.135620 2452.161377,866.476929 2454.783936,879.944214 
	C2458.161865,897.291504 2464.366943,914.150879 2474.984131,929.032471 
	C2485.617188,943.936401 2497.012939,957.936523 2511.846924,968.891357 
	C2525.813232,979.205811 2540.110840,988.634766 2556.543945,995.022705 
	C2569.179932,999.934631 2581.782715,1004.502319 2594.880859,1008.029907 
	C2607.778076,1011.503357 2620.839355,1013.307434 2635.252441,1015.495789 
	C2639.467773,1015.681091 2643.683105,1015.866394 2649.779785,1015.881348 
	C2665.888672,1015.938904 2681.997314,1015.996460 2699.779541,1016.188293 
	C2704.501221,1015.649841 2709.222900,1015.111389 2715.686768,1014.203613 
	C2732.944824,1012.472351 2750.052490,1010.214966 2766.874756,1005.526917 
	C2792.355957,998.425903 2816.992432,989.247986 2839.268555,975.037537 
	C2860.403564,961.555176 2880.359863,946.256714 2897.935303,928.219299 
	C2902.693848,923.335754 2907.554199,921.269592 2914.456299,921.316345 
	C2950.025146,921.557495 2985.597412,921.221252 3021.168457,921.220032 
	C3034.779053,921.219604 3048.389404,921.573975 3062.015137,923.295776 
	C3063.075928,925.601440 3064.038330,927.959167 3065.223145,930.199158 
	C3066.594238,932.790649 3068.787842,935.107849 3069.533203,937.841614 
	C3072.602051,949.097900 3075.127197,960.502625 3078.207031,971.755615 
	C3078.652344,973.382690 3081.028564,974.481262 3083.380371,977.077026 
	C3084.862305,985.386047 3086.344238,993.695007 3086.392578,1002.310059 
	C3082.300537,1005.950806 3082.829590,1010.168701 3086.709473,1012.825745 
	C3090.725586,1015.576355 3093.164062,1012.639893 3095.842773,1008.099243 
	C3106.098145,1008.071350 3116.353516,1007.984314 3126.608643,1008.027283 
	C3151.740967,1008.132507 3176.873291,1008.297729 3202.047363,1009.872498 
	C3202.944092,1015.006287 3207.416748,1015.150879 3208.266113,1011.735474 
	C3209.612305,1006.321472 3208.280518,1000.152893 3207.545410,994.371765 
	C3207.359619,992.910828 3205.265381,991.544006 3203.804932,990.462097 
	C3203.164062,989.987305 3201.913086,990.335632 3200.314453,989.066589 
	C3199.983398,986.772278 3199.652100,984.478027 3200.848877,981.917053 
	C3205.655273,976.184082 3204.942871,974.352295 3196.523926,971.331360 
	C3196.523926,971.331360 3196.602051,970.429077 3198.031982,969.812805 
	C3201.311768,965.954712 3199.512451,964.523560 3194.518799,962.953857 
	C3193.879639,959.445618 3193.240479,955.937378 3194.031250,951.813660 
	C3197.308105,947.964478 3195.520020,946.526672 3190.525146,944.952637 
	C3189.883789,941.444885 3189.242432,937.937195 3190.030518,933.813538 
	C3193.308350,929.965088 3191.521240,928.526733 3186.526367,926.952820 
	C3185.891846,923.444763 3185.257568,919.936646 3186.044434,915.809753 
	C3189.287354,912.000916 3187.550537,910.535706 3182.537598,908.959473 
	C3181.897461,905.449036 3181.257080,901.938538 3182.039795,897.811218 
	C3185.286865,894.005493 3183.554688,892.537415 3178.539062,890.959106 
	C3177.898438,887.448792 3177.257812,883.938477 3178.040283,879.811157 
	C3181.288330,876.003601 3179.552979,874.537109 3174.549805,873.019775 
	C3174.055176,870.124084 3173.560547,867.228333 3174.512695,863.737061 
	C3179.428711,857.479553 3178.809814,855.920105 3170.205322,853.028259 
	C3169.686279,850.164612 3169.166992,847.301025 3170.147217,843.705017 
	C3172.824463,837.823364 3172.718506,837.591248 3166.204346,835.019897 
	C3165.685547,832.159058 3165.166748,829.298218 3166.147217,825.705017 
	C3168.824707,819.823975 3168.718750,819.591553 3162.204834,817.020569 
	C3161.693604,814.159180 3161.182617,811.297729 3162.162354,807.699280 
	C3164.818115,801.824219 3164.717041,801.601685 3158.220215,798.989746 
	C3157.694092,796.080872 3157.167969,793.171997 3158.260986,790.060181 
	C3159.358643,788.768250 3161.486816,787.366638 3161.363281,786.204773 
	C3160.971191,782.521667 3157.952881,782.063782 3154.225830,781.021362 
	C3153.707764,778.159668 3153.189453,775.297974 3154.162354,771.699036 
	C3156.818115,765.824463 3156.716797,765.601868 3150.220703,762.989624 
	C3149.697266,760.080139 3149.173828,757.170715 3150.266113,754.059204 
	C3151.362793,752.771240 3153.485352,751.378296 3153.366211,750.214844 
	C3152.990479,746.542480 3149.983398,746.066833 3146.243164,744.991577 
	C3145.717773,742.081970 3145.192383,739.172363 3146.280518,736.057312 
	C3147.372803,734.767517 3149.489014,733.370911 3149.367676,732.207825 
	C3148.985352,728.542969 3145.981934,728.065552 3142.243164,726.991699 
	C3141.718018,724.081848 3141.192627,721.171936 3142.281250,718.057190 
	C3143.373047,716.767395 3145.488770,715.370850 3145.367432,714.207458 
	C3144.985352,710.542114 3141.981445,710.065735 3138.242920,708.992065 
	C3137.721924,706.081726 3137.200928,703.171448 3138.290283,700.055725 
	C3139.380371,698.768005 3141.490479,697.375854 3141.371094,696.211914 
	C3140.996826,692.557617 3138.002930,692.066711 3134.263916,690.986633 
	C3133.737549,688.078369 3133.211426,685.170166 3134.294678,682.054993 
	C3135.383057,680.766541 3137.491211,679.373108 3137.371338,678.209167 
	C3136.994873,674.557007 3134.001709,674.066223 3130.292725,673.165527 
	C3130.109863,671.448669 3129.927246,669.731750 3131.161133,667.818970 
	C3131.906982,666.295410 3133.345947,664.688843 3133.176758,663.274658 
	C3133.043701,662.162354 3131.024902,660.636230 3129.671631,660.431824 
	C3125.937988,659.867615 3124.411377,662.327026 3122.154785,666.039185 
	C3104.279785,666.065063 3086.404297,666.157532 3068.529541,666.099426 
	C3047.685791,666.031677 3026.842529,665.832397 3005.777344,664.243286 
	C3004.443604,660.238586 3001.463379,659.844177 2997.812012,660.338867 
	C2986.457031,661.877075 2976.299805,666.352661 2966.864258,672.654480 
	C2960.129150,677.152832 2958.122559,681.787170 2959.418213,689.344543 
	C2959.418213,689.344543 2959.220215,689.693542 2957.704590,688.749329 
	C2951.815674,690.037659 2951.423096,690.829529 2953.394043,697.333069 
M2041.542603,870.371704 
	C2042.392822,870.847351 2043.199829,871.623901 2044.099854,871.753357 
	C2056.189453,873.492371 2064.872070,879.291382 2070.651123,890.582947 
	C2082.827148,914.373352 2088.880859,940.341675 2098.284424,965.104919 
	C2103.624512,979.167603 2108.063232,993.572510 2112.797119,1007.497314 
	C2152.875732,1007.497314 2192.054199,1007.497314 2231.575195,1007.497314 
	C2231.250244,1006.009338 2231.153809,1005.051086 2230.833496,1004.174622 
	C2217.356201,967.297302 2203.857422,930.427856 2190.364014,893.556458 
	C2182.157471,871.131775 2168.347656,853.804871 2145.882324,843.084595 
	C2145.940674,842.149902 2145.998779,841.215271 2147.708008,839.890137 
	C2158.502441,838.722351 2169.130127,836.666504 2179.458496,833.328247 
	C2200.855225,826.412537 2220.413086,816.037842 2235.334229,798.972107 
	C2257.747314,773.337646 2260.278320,746.762390 2245.102539,719.137695 
	C2234.991699,700.733215 2218.612793,688.793213 2199.794678,680.506409 
	C2176.173096,670.104248 2151.154541,665.907654 2125.377930,665.944702 
	C2062.085693,666.035645 1998.793579,666.064270 1935.501343,666.117249 
	C1931.930664,666.120239 1928.359863,666.117615 1924.970093,666.117615 
	C1924.457886,669.990234 1924.288940,672.595947 1923.750244,675.122925 
	C1920.681396,689.519226 1917.499023,703.891296 1914.405273,718.282349 
	C1911.978027,729.573181 1909.605591,740.875977 1907.241333,752.180237 
	C1904.878296,763.478455 1902.503174,774.774536 1900.229980,786.090942 
	C1898.022095,797.082825 1896.019531,808.116211 1893.777344,819.100769 
	C1890.769897,833.834351 1887.665039,848.548523 1884.513428,863.251953 
	C1882.157715,874.242126 1879.600098,885.189026 1877.245605,896.179443 
	C1874.827148,907.467102 1872.583740,918.792053 1870.195068,930.086304 
	C1867.745483,941.669312 1865.045166,953.201782 1862.760376,964.816528 
	C1860.032104,978.685364 1857.628540,992.618103 1854.811279,1008.015320 
	C1859.627441,1008.015320 1862.845703,1008.015442 1866.064087,1008.015381 
	C1886.051270,1008.014954 1906.040405,1007.843994 1926.025269,1008.054626 
	C1954.708740,1008.356873 1977.035156,988.597778 1983.460327,961.289917 
	C1988.437012,940.137695 1991.802246,918.609070 1996.029907,897.276733 
	C1997.934326,887.666931 2000.194580,878.127686 2002.292969,868.558594 
	C2010.840454,868.558594 2018.446533,868.558594 2027.275513,869.500549 
	C2031.539185,869.657715 2035.802856,869.814880 2041.542603,870.371704 
M1614.741455,652.423889 
	C1613.961792,652.359680 1613.182129,652.295532 1610.854126,651.985657 
	C1607.934570,652.462219 1605.014893,652.938843 1600.353638,653.789673 
	C1575.744385,656.707092 1551.310791,660.308838 1527.646240,668.210144 
	C1499.648804,677.558105 1473.869507,690.211365 1451.114380,709.714966 
	C1422.115234,734.570312 1404.681152,765.794739 1394.259644,801.753845 
	C1389.924072,816.713318 1389.193237,832.206116 1388.800049,847.505981 
	C1388.464233,860.572021 1390.654663,873.751526 1392.315308,886.806152 
	C1393.859863,898.947388 1400.297241,909.304016 1405.559204,920.097107 
	C1412.629028,934.598328 1422.705688,946.833374 1434.130249,957.838562 
	C1455.146362,978.083557 1480.135742,991.872253 1507.580688,1001.645264 
	C1526.586548,1008.413147 1545.854614,1013.413818 1567.242432,1015.480530 
	C1571.455444,1015.673523 1575.668335,1015.866516 1581.764526,1015.890564 
	C1597.216919,1015.947266 1612.669312,1016.004028 1629.790771,1016.193909 
	C1634.505493,1015.669861 1639.220093,1015.145813 1645.742920,1014.254211 
	C1650.723755,1014.152039 1655.900024,1014.893921 1660.650146,1013.794556 
	C1676.998047,1010.010925 1693.568604,1007.483521 1709.684692,1002.258179 
	C1732.405273,994.891418 1754.097290,985.942871 1773.901001,972.460938 
	C1799.292725,955.174805 1819.515381,933.254456 1833.633545,905.994385 
	C1845.147461,883.762512 1851.246582,859.964783 1854.525269,835.070007 
	C1857.875732,809.629944 1854.558472,785.536316 1844.762329,762.216370 
	C1829.021973,724.745422 1800.932861,698.950256 1765.674438,680.214661 
	C1737.556030,665.273193 1707.150635,657.911743 1674.755981,652.483948 
	C1671.761963,652.369995 1668.768066,652.255981 1663.932495,652.301453 
	C1648.602173,652.200195 1633.271851,652.098938 1616.902100,651.912537 
	C1616.559814,651.973694 1616.217529,652.034790 1614.741455,652.423889 
M2288.148193,880.462708 
	C2286.706299,886.717224 2285.208984,892.959656 2283.832764,899.228577 
	C2280.601807,913.948303 2277.364014,928.667175 2274.250488,943.411926 
	C2271.067139,958.487244 2267.505615,973.513428 2265.186279,988.725159 
	C2264.265381,994.763184 2259.444580,1000.913635 2263.983398,1007.803101 
	C2291.300049,1007.803101 2318.581787,1007.805298 2345.863525,1007.793823 
	C2346.849121,1007.793396 2347.922363,1007.887512 2348.807129,1007.549988 
	C2371.548828,998.872925 2387.480957,984.170044 2392.041260,959.150757 
	C2394.642090,944.882141 2397.585938,930.673950 2400.522461,916.468933 
	C2407.601074,882.225281 2414.779785,848.002319 2421.892090,813.765625 
	C2427.122070,788.590393 2432.372070,763.419189 2437.501221,738.223450 
	C2442.299072,714.654175 2446.949463,691.054871 2451.807617,666.754517 
	C2411.180176,666.754517 2371.087402,666.754517 2331.277344,666.754517 
	C2328.521240,680.234558 2325.924072,693.106018 2323.251221,705.961792 
	C2320.234131,720.473694 2317.115479,734.964478 2314.104492,749.477722 
	C2311.696777,761.084045 2309.370850,772.707520 2307.033447,784.328430 
	C2304.751221,795.676270 2302.542480,807.039062 2300.223389,818.379333 
	C2297.913818,829.673157 2295.399902,840.926086 2293.177246,852.236511 
	C2291.447510,861.039673 2290.026855,869.903687 2288.148193,880.462708 
z"/>
<path fill="#02CEE5" opacity="1.000000" stroke="none" 
	d="
M1026.057983,1256.578125 
	C1022.585205,1256.347290 1019.112488,1256.116455 1014.114441,1255.632568 
	C1009.076904,1255.106445 1005.564697,1254.833252 1002.052429,1254.560059 
	C982.317200,1253.064697 962.891541,1249.944458 944.025818,1243.745850 
	C924.758362,1237.415283 905.130676,1232.024170 886.266296,1224.668823 
	C868.348572,1217.682495 850.628113,1209.731812 833.873962,1200.328735 
	C809.183289,1186.471924 785.020996,1171.565918 761.379272,1155.975952 
	C734.464600,1138.227783 709.645935,1117.619873 684.840759,1095.273438 
	C682.450867,1091.958496 680.868713,1089.489624 678.889099,1087.396851 
	C654.908813,1062.044067 630.763306,1036.846558 606.918213,1011.367676 
	C600.632629,1004.651489 595.228027,997.110840 589.190125,989.666565 
	C593.342651,984.871399 596.434875,980.460693 600.329834,976.937256 
	C628.916992,951.077515 657.386597,925.075012 686.480896,899.793884 
	C700.747253,887.397339 716.267517,876.443787 731.220215,864.837097 
	C784.808777,931.611267 848.869080,985.301636 927.271301,1020.801575 
	C961.919739,1036.490112 998.260010,1045.919922 1036.536499,1045.530029 
	C1062.814575,1045.262573 1088.223267,1040.146729 1111.429688,1027.064209 
	C1148.801147,1005.996216 1169.157715,972.761902 1177.918701,931.823242 
	C1186.601440,891.250244 1183.116699,850.938293 1173.115112,811.067383 
	C1156.232788,743.767090 1124.293823,683.817871 1082.629395,628.842041 
	C1037.443604,569.219788 983.482178,519.204834 918.485474,481.645599 
	C883.056396,461.172485 845.647278,445.760498 805.022095,439.009064 
	C778.783813,434.648560 752.540588,434.126678 726.670288,440.871185 
	C674.457764,454.483185 642.759827,488.907532 628.298279,540.019958 
	C620.289001,568.327759 620.024902,597.239319 623.118591,626.276611 
	C626.673279,659.641418 636.008484,691.516846 648.052307,722.693970 
	C652.866638,735.156555 651.321655,740.467407 640.794373,748.584717 
	C602.499878,778.112793 565.549377,809.229370 530.124573,842.153320 
	C522.355042,849.374329 514.472595,856.473999 505.894226,864.313049 
	C502.946442,859.302490 499.851685,854.760559 497.466034,849.872620 
	C479.514160,813.091370 464.531830,775.088806 452.531433,735.992126 
	C447.444336,719.418640 443.024231,702.436340 440.522919,685.315247 
	C435.075378,648.027832 432.300812,610.527588 435.431061,572.727722 
	C436.645477,558.062927 436.965363,543.232910 440.432922,528.979309 
	C444.150696,513.697388 448.912750,498.555817 454.623566,483.900299 
	C462.381226,463.992004 473.018311,445.519806 486.061859,428.457825 
	C501.635681,408.085999 520.700256,391.840576 542.267090,378.093140 
	C558.883301,367.501404 577.028564,360.152954 595.533569,354.781433 
	C613.175964,349.660339 631.992798,348.585297 651.819641,345.710876 
	C654.187988,345.511261 655.030090,345.332306 655.872131,345.153351 
	C657.545654,345.121063 659.219238,345.088837 662.513794,345.103821 
	C671.277283,344.971069 678.419800,344.791046 685.562256,344.611023 
	C686.582886,344.825439 687.603516,345.039886 690.086365,345.426025 
	C693.004028,345.530792 694.459412,345.463806 695.914856,345.396851 
	C732.957092,348.755951 769.171326,356.296844 804.191650,368.707672 
	C854.910522,386.681854 902.242676,411.462189 946.662598,441.844513 
	C977.092407,462.657806 1006.295654,485.016785 1033.129028,510.334534 
	C1049.530273,525.809448 1066.352417,540.950256 1081.579224,557.532349 
	C1105.757812,583.862976 1128.622925,611.359070 1149.445190,640.521484 
	C1176.065552,677.804016 1199.650269,716.858765 1219.718140,758.024597 
	C1241.218140,802.127808 1258.223267,847.929382 1269.135132,895.773193 
	C1277.266235,931.424133 1282.458862,967.600525 1281.634399,1004.321533 
	C1280.535645,1053.252197 1271.444946,1100.307861 1247.891602,1143.884521 
	C1235.922852,1166.028320 1220.677979,1185.748535 1201.979858,1202.306030 
	C1179.179443,1222.495972 1152.787476,1237.091553 1123.350586,1245.488525 
	C1109.287476,1249.499878 1095.021606,1252.949219 1080.668945,1255.730957 
	C1073.924194,1257.038086 1066.757202,1256.165283 1057.947754,1256.258057 
	C1046.095337,1256.349976 1036.076660,1256.464111 1026.057983,1256.578125 
z"/>
<path fill="#03CEE5" opacity="1.000000" stroke="none" 
	d="
M3188.601074,934.429443 
	C3189.242432,937.937195 3189.883789,941.444885 3190.933105,946.225647 
	C3191.761230,949.142151 3192.181396,950.785645 3192.601562,952.429199 
	C3193.240479,955.937378 3193.879639,959.445618 3194.928711,964.227234 
	C3195.759766,967.143433 3196.180908,968.786255 3196.602051,970.429077 
	C3196.602051,970.429077 3196.523926,971.331360 3196.791748,972.464111 
	C3197.813477,976.459106 3198.567383,979.321411 3199.321045,982.183716 
	C3199.652100,984.478027 3199.983398,986.772278 3200.709961,990.497803 
	C3201.862305,995.408447 3202.915039,998.859009 3203.259277,1002.378845 
	C3203.450928,1004.339233 3202.462402,1006.414978 3202.005615,1008.438782 
	C3176.873291,1008.297729 3151.740967,1008.132507 3126.608643,1008.027283 
	C3116.353516,1007.984314 3106.098145,1008.071350 3094.249512,1008.083740 
	C3091.046143,1006.046875 3089.436035,1004.025452 3087.826172,1002.004028 
	C3086.344238,993.695007 3084.862305,985.386047 3082.948730,975.612427 
	C3079.741211,960.116638 3077.161865,946.042542 3074.114502,932.070496 
	C3072.338135,923.927185 3070.711914,922.912659 3062.000000,921.766541 
	C3048.389404,921.573975 3034.779053,921.219604 3021.168457,921.220032 
	C2985.597412,921.221252 2950.025146,921.557495 2914.456299,921.316345 
	C2907.554199,921.269592 2902.693848,923.335754 2897.935303,928.219299 
	C2880.359863,946.256714 2860.403564,961.555176 2839.268555,975.037537 
	C2816.992432,989.247986 2792.355957,998.425903 2766.874756,1005.526917 
	C2750.052490,1010.214966 2732.944824,1012.472351 2713.991211,1014.242737 
	C2707.565918,1014.872559 2702.835938,1015.463257 2698.106201,1016.054016 
	C2681.997314,1015.996460 2665.888672,1015.938904 2648.159668,1015.642334 
	C2642.376709,1015.115784 2638.213379,1014.828308 2634.050293,1014.540833 
	C2620.839355,1013.307434 2607.778076,1011.503357 2594.880859,1008.029907 
	C2581.782715,1004.502319 2569.179932,999.934631 2556.543945,995.022705 
	C2540.110840,988.634766 2525.813232,979.205811 2511.846924,968.891357 
	C2497.012939,957.936523 2485.617188,943.936401 2474.984131,929.032471 
	C2464.366943,914.150879 2458.161865,897.291504 2454.783936,879.944214 
	C2452.161377,866.476929 2453.760986,852.135620 2453.929688,838.188232 
	C2454.221436,814.044006 2461.277344,791.785950 2472.466309,770.466553 
	C2481.893066,752.504211 2492.961182,735.882141 2507.585938,721.837891 
	C2526.734131,703.450012 2548.562256,689.184387 2572.988770,678.473999 
	C2604.142578,664.813599 2636.651611,657.209839 2671.650879,653.616516 
	C2673.009033,653.543518 2673.910156,653.129517 2673.910156,653.129517 
	C2674.917969,653.092712 2675.925537,653.055908 2677.966797,652.975952 
	C2679.589844,652.954834 2680.043457,652.717285 2680.361328,652.220276 
	C2681.164062,652.275208 2681.967041,652.330139 2683.714355,652.434692 
	C2685.701660,652.297180 2686.744629,652.110107 2687.787354,651.922974 
	C2701.814209,652.060791 2715.841064,652.198547 2731.060547,652.514465 
	C2732.253174,652.692566 2732.988037,652.805420 2732.988037,652.805420 
	C2732.988037,652.805420 2733.576904,652.352112 2733.576904,652.352051 
	C2734.581299,652.623535 2735.585449,652.895020 2737.969727,653.387451 
	C2740.211670,653.545532 2741.074219,653.482544 2741.936523,653.419617 
	C2771.441895,657.481873 2800.378418,663.769775 2827.519043,676.477173 
	C2836.143799,680.515320 2844.309814,685.532776 2853.697021,690.653809 
	C2841.792236,707.776672 2830.573975,723.911926 2820.100098,738.976868 
	C2804.017822,733.226501 2788.911865,727.825134 2772.675293,721.739136 
	C2770.411377,720.912659 2769.278320,720.770874 2768.145020,720.629028 
	C2766.175293,720.272400 2764.205811,719.915833 2761.003906,719.268433 
	C2758.571533,718.888489 2757.371582,718.799255 2756.171631,718.710022 
	C2750.957764,718.243286 2745.744141,717.776550 2738.926025,717.088989 
	C2726.525146,717.187744 2715.728760,717.507446 2704.932129,717.827087 
	C2701.080322,717.984436 2697.228516,718.141846 2692.110352,718.515564 
	C2690.145996,718.819763 2689.613037,719.163818 2689.245361,719.764038 
	C2667.070557,722.792480 2647.921631,732.575256 2629.496582,746.884338 
	C2627.069580,749.121887 2625.596191,750.578308 2624.122803,752.034668 
	C2621.565918,754.300293 2619.009277,756.565979 2615.648926,759.707031 
	C2613.550537,762.284729 2612.255371,763.987000 2610.960449,765.689331 
	C2594.658936,783.877014 2586.233154,805.686584 2582.296875,829.367310 
	C2578.638916,851.372681 2579.593018,873.191040 2587.621338,894.252075 
	C2599.401611,925.155151 2621.659912,944.338379 2654.755859,952.696106 
	C2656.521484,953.122375 2657.191406,953.207703 2657.861084,953.293091 
	C2660.357422,953.743652 2662.853516,954.194275 2666.478027,954.896484 
	C2668.351807,955.182190 2669.097412,955.216187 2669.843262,955.250122 
	C2678.673584,955.416016 2687.504150,955.581848 2697.802734,955.590698 
	C2699.887695,955.044739 2700.504395,954.655884 2701.120850,954.266968 
	C2703.680176,954.077209 2706.239746,953.887451 2709.934570,953.437256 
	C2711.677246,953.036804 2712.128662,952.692322 2712.424072,952.143494 
	C2722.305420,948.473694 2732.811768,945.925232 2741.912842,940.854919 
	C2753.720215,934.277100 2764.408936,925.691345 2776.520264,917.171509 
	C2778.945068,914.906982 2780.428955,913.440857 2781.912842,911.974792 
	C2792.432373,901.678833 2802.951904,891.382874 2814.283691,880.196777 
	C2816.369873,877.635254 2817.643555,875.963989 2818.917480,874.292725 
	C2820.557617,872.602112 2822.197998,870.911499 2824.612549,868.357788 
	C2830.781738,860.293152 2836.176514,853.091736 2841.571045,845.890259 
	C2841.571045,845.890198 2841.550781,845.547729 2842.328613,845.520630 
	C2847.097168,839.554688 2851.087891,833.615784 2855.078369,827.676880 
	C2855.078369,827.676880 2855.389160,827.360352 2856.083984,826.955322 
	C2862.912354,818.268921 2869.045898,809.987549 2875.179443,801.706177 
	C2875.179443,801.706116 2875.415039,801.345276 2876.072510,800.898315 
	C2884.172363,790.198730 2891.614746,779.946045 2899.057129,769.693359 
	C2899.056885,769.693298 2899.374756,769.342102 2900.028809,768.855835 
	C2902.041992,766.543762 2903.443115,764.747620 2904.752930,762.887146 
	C2910.197510,755.153015 2915.614746,747.399658 2921.041992,739.653381 
	C2921.041992,739.653381 2921.365479,739.338562 2922.054443,738.904846 
	C2930.190918,728.207336 2937.638184,717.943604 2945.085693,707.679871 
	C2945.085693,707.679871 2945.391113,707.361572 2946.083496,706.962646 
	C2948.897217,703.604553 2951.019043,700.645325 2953.140625,697.686096 
	C2953.140625,697.686096 2953.394043,697.333069 2954.042725,696.889893 
	C2956.200928,694.195618 2957.710693,691.944580 2959.220215,689.693542 
	C2959.220215,689.693542 2959.418213,689.344543 2960.076660,688.945679 
	C2962.331543,686.895691 2964.067627,685.356812 2965.500732,683.574402 
	C2973.189697,674.012817 2983.133057,668.524353 2995.246094,666.910034 
	C2998.821045,666.433655 3002.414307,666.093018 3005.999023,665.690125 
	C3026.842529,665.832397 3047.685791,666.031677 3068.529541,666.099426 
	C3086.404297,666.157532 3104.279785,666.065063 3123.689209,666.041260 
	C3126.730469,666.700500 3128.237549,667.357727 3129.744385,668.014893 
	C3129.927246,669.731750 3130.109863,671.448669 3130.623535,674.433350 
	C3131.531250,677.888123 3132.108154,680.075012 3132.685059,682.261902 
	C3133.211426,685.170166 3133.737549,688.078369 3134.610840,692.343628 
	C3135.531494,695.887451 3136.105469,698.074341 3136.679688,700.261230 
	C3137.200928,703.171448 3137.721924,706.081726 3138.582520,710.350464 
	C3139.504150,713.893250 3140.085938,716.077637 3140.667480,718.262024 
	C3141.192627,721.171936 3141.718018,724.081848 3142.583008,728.350342 
	C3143.504150,731.893555 3144.085693,734.078125 3144.666992,736.262695 
	C3145.192383,739.172363 3145.717773,742.081970 3146.580566,746.349854 
	C3147.495361,749.892578 3148.072754,752.076965 3148.650391,754.261292 
	C3149.173828,757.170715 3149.697266,760.080139 3150.549316,764.364502 
	C3151.475830,767.971619 3152.073486,770.203979 3152.671143,772.436279 
	C3153.189453,775.297974 3153.707764,778.159668 3154.551758,782.371338 
	C3155.465576,785.901917 3156.053711,788.082520 3156.641846,790.263123 
	C3157.167969,793.171997 3157.694092,796.080872 3158.549316,800.364502 
	C3159.476074,803.971680 3160.073486,806.203979 3160.671387,808.436279 
	C3161.182617,811.297729 3161.693604,814.159180 3162.527832,818.384155 
	C3163.449951,821.977661 3164.049072,824.207520 3164.647949,826.437378 
	C3165.166748,829.298218 3165.685547,832.159058 3166.527588,836.383911 
	C3167.449951,839.977722 3168.049072,842.207520 3168.647949,844.437378 
	C3169.166992,847.301025 3169.686279,850.164612 3170.544189,854.436035 
	C3171.610840,858.673401 3172.338379,861.502991 3173.065918,864.332642 
	C3173.560547,867.228333 3174.055176,870.124084 3174.965576,874.253845 
	C3175.793457,877.134644 3176.205322,878.781372 3176.617188,880.428162 
	C3177.257812,883.938477 3177.898438,887.448792 3178.960449,892.223389 
	C3179.793701,895.134460 3180.205322,896.781311 3180.616943,898.428101 
	C3181.257080,901.938538 3181.897461,905.449036 3182.959473,910.223877 
	C3183.795410,913.135071 3184.209229,914.781799 3184.623047,916.428589 
	C3185.257568,919.936646 3185.891846,923.444763 3186.934082,928.225769 
	C3187.761475,931.142273 3188.181396,932.785828 3188.601074,934.429443 
M3046.759277,864.132996 
	C3051.007324,864.132996 3055.255371,864.132996 3059.561279,864.132996 
	C3058.516602,847.655945 3038.086426,749.421204 3034.431885,743.530945 
	C3007.710205,783.407532 2981.128662,823.074585 2953.614746,864.133118 
	C2985.057617,864.133118 3014.934814,864.133118 3046.759277,864.132996 
z"/>
<path fill="#022776" opacity="1.000000" stroke="none" 
	d="
M731.698608,864.403442 
	C716.267517,876.443787 700.747253,887.397339 686.480896,899.793884 
	C657.386597,925.075012 628.916992,951.077515 600.329834,976.937256 
	C596.434875,980.460693 593.342651,984.871399 589.190125,989.666565 
	C595.228027,997.110840 600.632629,1004.651489 606.918213,1011.367676 
	C630.763306,1036.846558 654.908813,1062.044067 678.889099,1087.396851 
	C680.868713,1089.489624 682.450867,1091.958496 684.251404,1094.952393 
	C677.950317,1099.630981 671.519531,1103.465942 665.300049,1107.617432 
	C651.211365,1117.021606 637.285645,1126.669922 623.183533,1136.053467 
	C609.376526,1145.240601 595.754761,1154.772949 581.454834,1163.132812 
	C568.373108,1170.780640 554.584778,1177.250977 540.940796,1183.897339 
	C525.851257,1191.247803 510.866516,1198.953857 495.285309,1205.111328 
	C481.930817,1210.389038 467.814697,1213.752808 454.002441,1217.851929 
	C449.043030,1219.323730 443.408142,1219.501221 439.143372,1222.047729 
	C435.111511,1224.454834 431.585510,1223.543213 425.983643,1223.673340 
	C413.466370,1223.943359 402.714264,1224.069336 391.962158,1224.195190 
	C391.962158,1224.195190 391.838318,1224.031738 391.344299,1223.819946 
	C389.283539,1223.764648 387.716766,1223.921143 386.150024,1224.077515 
	C379.992859,1221.585938 373.293945,1219.942993 367.789734,1216.428711 
	C355.827179,1208.791138 347.237976,1198.416260 346.766632,1183.281128 
	C346.426208,1172.348877 345.316528,1161.305298 346.428223,1150.504761 
	C347.353790,1141.513062 350.445160,1132.595825 353.575195,1124.009399 
	C360.838745,1104.083862 369.676270,1084.987183 380.236511,1066.398071 
	C400.566437,1030.611328 424.610504,997.689087 450.931488,966.259460 
	C460.033417,955.390930 469.007782,944.403442 478.448120,933.834534 
	C485.057953,926.434509 492.359558,919.652405 500.053162,911.934692 
	C501.231934,910.990051 501.417938,910.574341 501.312103,910.027832 
	C501.312103,910.027832 501.867950,909.839600 502.259186,909.362061 
	C502.668121,908.101868 502.685791,907.319214 502.703491,906.536499 
	C513.757202,895.693237 524.810974,884.850037 536.578613,873.429382 
	C537.932312,872.550781 538.572021,872.249634 539.211792,871.948425 
	C539.211792,871.948425 539.862732,871.745789 540.255859,871.401733 
	C541.047913,870.840515 541.204773,870.508667 541.119690,870.062195 
	C541.119690,870.062195 541.796692,869.901428 542.243652,869.592468 
	C543.132996,869.068237 543.292908,868.722229 543.170410,868.245483 
	C568.759583,845.899597 593.820007,822.910828 620.046326,801.339539 
	C677.561279,754.033203 738.692749,712.005798 805.595520,678.875244 
	C836.973694,663.336670 869.253479,650.065796 903.792603,643.138855 
	C921.878723,639.511597 940.066040,637.794495 958.306274,641.906982 
	C982.468933,647.354675 996.658020,664.521545 997.861450,689.346436 
	C998.614319,704.877563 995.571716,719.838562 990.974426,734.533264 
	C983.275208,759.143005 971.764648,782.017151 958.681763,804.125732 
	C928.667480,854.846863 891.825317,900.358215 851.938171,943.527344 
	C851.068726,944.468445 849.973083,945.200439 848.784180,946.196350 
	C830.867859,933.498535 814.755493,919.032349 799.431091,903.744385 
	C786.229370,890.574097 773.561523,876.855286 760.956421,863.105103 
	C752.786804,854.193359 749.372314,853.329285 738.748047,859.468079 
	C736.455933,860.792542 734.362122,862.460266 731.698608,864.403442 
z"/>
<path fill="#03CEE5" opacity="1.000000" stroke="none" 
	d="
M1566.046265,1014.517822 
	C1545.854614,1013.413818 1526.586548,1008.413147 1507.580688,1001.645264 
	C1480.135742,991.872253 1455.146362,978.083557 1434.130249,957.838562 
	C1422.705688,946.833374 1412.629028,934.598328 1405.559204,920.097107 
	C1400.297241,909.304016 1393.859863,898.947388 1392.315308,886.806152 
	C1390.654663,873.751526 1388.464233,860.572021 1388.800049,847.505981 
	C1389.193237,832.206116 1389.924072,816.713318 1394.259644,801.753845 
	C1404.681152,765.794739 1422.115234,734.570312 1451.114380,709.714966 
	C1473.869507,690.211365 1499.648804,677.558105 1527.646240,668.210144 
	C1551.310791,660.308838 1575.744385,656.707092 1601.969727,653.762939 
	C1606.524658,653.234558 1609.463501,652.732971 1612.402466,652.231384 
	C1613.182129,652.295532 1613.961792,652.359680 1615.534180,652.463867 
	C1616.326904,652.503906 1617.227417,652.504700 1617.227417,652.504700 
	C1617.227417,652.504700 1617.941528,651.997681 1617.941528,651.997681 
	C1633.271851,652.098938 1648.602173,652.200195 1665.502686,652.569214 
	C1670.015991,653.028687 1672.959229,653.220337 1675.902466,653.411987 
	C1707.150635,657.911743 1737.556030,665.273193 1765.674438,680.214661 
	C1800.932861,698.950256 1829.021973,724.745422 1844.762329,762.216370 
	C1854.558472,785.536316 1857.875732,809.629944 1854.525269,835.070007 
	C1851.246582,859.964783 1845.147461,883.762512 1833.633545,905.994385 
	C1819.515381,933.254456 1799.292725,955.174805 1773.901001,972.460938 
	C1754.097290,985.942871 1732.405273,994.891418 1709.684692,1002.258179 
	C1693.568604,1007.483521 1676.998047,1010.010925 1660.650146,1013.794556 
	C1655.900024,1014.893921 1650.723755,1014.152039 1644.016357,1014.291016 
	C1637.567139,1014.905396 1632.844360,1015.483032 1628.121704,1016.060730 
	C1612.669312,1016.004028 1597.216919,1015.947266 1580.143188,1015.654419 
	C1574.363281,1015.118103 1570.204834,1014.817932 1566.046265,1014.517822 
M1676.979248,721.847534 
	C1639.150879,703.715149 1604.273926,711.027832 1572.047119,735.125305 
	C1548.000366,753.106018 1533.228394,777.907043 1524.853638,806.418396 
	C1515.824951,837.156433 1514.250244,868.041870 1525.781738,898.641724 
	C1539.651855,935.447632 1572.449341,958.166565 1611.719604,956.052490 
	C1638.916504,954.588379 1662.385254,943.968262 1681.148438,924.722778 
	C1719.257202,885.634216 1732.519165,838.487244 1722.299805,785.110962 
	C1717.110596,758.007507 1702.521362,736.656799 1676.979248,721.847534 
z"/>
<path fill="#03CEE5" opacity="1.000000" stroke="none" 
	d="
M2145.735596,844.481750 
	C2168.347656,853.804871 2182.157471,871.131775 2190.364014,893.556458 
	C2203.857422,930.427856 2217.356201,967.297302 2230.833496,1004.174622 
	C2231.153809,1005.051086 2231.250244,1006.009338 2231.575195,1007.497314 
	C2192.054199,1007.497314 2152.875732,1007.497314 2112.797119,1007.497314 
	C2108.063232,993.572510 2103.624512,979.167603 2098.284424,965.104919 
	C2088.880859,940.341675 2082.827148,914.373352 2070.651123,890.582947 
	C2064.872070,879.291382 2056.189453,873.492371 2044.099854,871.753357 
	C2043.199829,871.623901 2042.392822,870.847351 2040.125488,869.804321 
	C2034.489746,869.010864 2030.271240,868.784729 2026.052734,868.558594 
	C2018.446533,868.558594 2010.840454,868.558594 2002.292969,868.558594 
	C2000.194580,878.127686 1997.934326,887.666931 1996.029907,897.276733 
	C1991.802246,918.609070 1988.437012,940.137695 1983.460327,961.289917 
	C1977.035156,988.597778 1954.708740,1008.356873 1926.025269,1008.054626 
	C1906.040405,1007.843994 1886.051270,1008.014954 1866.064087,1008.015381 
	C1862.845703,1008.015442 1859.627441,1008.015320 1854.811279,1008.015320 
	C1857.628540,992.618103 1860.032104,978.685364 1862.760376,964.816528 
	C1865.045166,953.201782 1867.745483,941.669312 1870.195068,930.086304 
	C1872.583740,918.792053 1874.827148,907.467102 1877.245605,896.179443 
	C1879.600098,885.189026 1882.157715,874.242126 1884.513428,863.251953 
	C1887.665039,848.548523 1890.769897,833.834351 1893.777344,819.100769 
	C1896.019531,808.116211 1898.022095,797.082825 1900.229980,786.090942 
	C1902.503174,774.774536 1904.878296,763.478455 1907.241333,752.180237 
	C1909.605591,740.875977 1911.978027,729.573181 1914.405273,718.282349 
	C1917.499023,703.891296 1920.681396,689.519226 1923.750244,675.122925 
	C1924.288940,672.595947 1924.457886,669.990234 1924.970093,666.117615 
	C1928.359863,666.117615 1931.930664,666.120239 1935.501343,666.117249 
	C1998.793579,666.064270 2062.085693,666.035645 2125.377930,665.944702 
	C2151.154541,665.907654 2176.173096,670.104248 2199.794678,680.506409 
	C2218.612793,688.793213 2234.991699,700.733215 2245.102539,719.137695 
	C2260.278320,746.762390 2257.747314,773.337646 2235.334229,798.972107 
	C2220.413086,816.037842 2200.855225,826.412537 2179.458496,833.328247 
	C2169.130127,836.666504 2158.502441,838.722351 2146.190430,839.948853 
	C2142.505371,840.145447 2140.338135,840.283264 2138.170654,840.421143 
	C2138.073242,840.843262 2137.975830,841.265381 2137.878418,841.687561 
	C2140.497559,842.618958 2143.116455,843.550354 2145.735596,844.481750 
M2073.816406,812.903564 
	C2081.058350,811.890869 2088.404785,811.346985 2095.520264,809.765564 
	C2109.378662,806.685669 2122.180420,801.147034 2132.020752,790.458191 
	C2150.139648,770.776855 2146.856445,745.990906 2124.325684,731.755432 
	C2114.241699,725.384033 2103.070068,722.250366 2091.206787,722.035522 
	C2076.227295,721.764282 2061.240234,721.819641 2046.256836,721.859680 
	C2033.487549,721.893860 2030.992676,724.042969 2028.342285,736.938904 
	C2024.325684,756.482056 2020.319946,776.027588 2016.389893,795.588257 
	C2015.293213,801.046265 2014.479614,806.561157 2013.340820,813.186340 
	C2033.602539,813.186340 2052.801025,813.186340 2073.816406,812.903564 
z"/>
<path fill="#03CEE5" opacity="1.000000" stroke="none" 
	d="
M2288.308594,879.601685 
	C2290.026855,869.903687 2291.447510,861.039673 2293.177246,852.236511 
	C2295.399902,840.926086 2297.913818,829.673157 2300.223389,818.379333 
	C2302.542480,807.039062 2304.751221,795.676270 2307.033447,784.328430 
	C2309.370850,772.707520 2311.696777,761.084045 2314.104492,749.477722 
	C2317.115479,734.964478 2320.234131,720.473694 2323.251221,705.961792 
	C2325.924072,693.106018 2328.521240,680.234558 2331.277344,666.754517 
	C2371.087402,666.754517 2411.180176,666.754517 2451.807617,666.754517 
	C2446.949463,691.054871 2442.299072,714.654175 2437.501221,738.223450 
	C2432.372070,763.419189 2427.122070,788.590393 2421.892090,813.765625 
	C2414.779785,848.002319 2407.601074,882.225281 2400.522461,916.468933 
	C2397.585938,930.673950 2394.642090,944.882141 2392.041260,959.150757 
	C2387.480957,984.170044 2371.548828,998.872925 2348.807129,1007.549988 
	C2347.922363,1007.887512 2346.849121,1007.793396 2345.863525,1007.793823 
	C2318.581787,1007.805298 2291.300049,1007.803101 2263.983398,1007.803101 
	C2259.444580,1000.913635 2264.265381,994.763184 2265.186279,988.725159 
	C2267.505615,973.513428 2271.067139,958.487244 2274.250488,943.411926 
	C2277.364014,928.667175 2280.601807,913.948303 2283.832764,899.228577 
	C2285.208984,892.959656 2286.706299,886.717224 2288.308594,879.601685 
z"/>
<path fill="#FFFFFF" opacity="1.000000" stroke="none" 
	d="
M3005.888184,664.966675 
	C3002.414307,666.093018 2998.821045,666.433655 2995.246094,666.910034 
	C2983.133057,668.524353 2973.189697,674.012817 2965.500732,683.574402 
	C2964.067627,685.356812 2962.331543,686.895691 2960.199707,688.787292 
	C2958.122559,681.787170 2960.129150,677.152832 2966.864258,672.654480 
	C2976.299805,666.352661 2986.457031,661.877075 2997.812012,660.338867 
	C3001.463379,659.844177 3004.443604,660.238586 3005.888184,664.966675 
z"/>
<path fill="#FFFFFF" opacity="1.000000" stroke="none" 
	d="
M3062.007568,922.531128 
	C3070.711914,922.912659 3072.338135,923.927185 3074.114502,932.070496 
	C3077.161865,946.042542 3079.741211,960.116638 3082.514160,974.986084 
	C3081.028564,974.481262 3078.652344,973.382690 3078.207031,971.755615 
	C3075.127197,960.502625 3072.602051,949.097900 3069.533203,937.841614 
	C3068.787842,935.107849 3066.594238,932.790649 3065.223145,930.199158 
	C3064.038330,927.959167 3063.075928,925.601440 3062.007568,922.531128 
z"/>
<path fill="#FFFFFF" opacity="1.000000" stroke="none" 
	d="
M2898.391602,769.225098 
	C2891.614746,779.946045 2884.172363,790.198730 2876.186523,800.715576 
	C2875.187012,799.433777 2873.841797,797.320801 2874.410889,796.428528 
	C2880.713379,786.544250 2885.437012,775.389648 2895.795166,768.645203 
	C2896.229980,768.361877 2897.073242,768.705322 2898.391602,769.225098 
z"/>
<path fill="#FFFFFF" opacity="1.000000" stroke="none" 
	d="
M2944.411621,707.217163 
	C2937.638184,717.943604 2930.190918,728.207336 2922.197754,738.730713 
	C2921.296875,737.131775 2919.977783,734.581055 2920.737549,733.523621 
	C2927.221680,724.498657 2934.053711,715.722046 2940.905273,706.967773 
	C2941.298340,706.465454 2942.768555,706.806091 2944.411621,707.217163 
z"/>
<path fill="#FFFFFF" opacity="1.000000" stroke="none" 
	d="
M2840.819824,845.369629 
	C2836.176514,853.091736 2830.781738,860.293152 2824.791504,867.791443 
	C2821.001221,860.820496 2821.246338,860.182678 2826.052979,855.908508 
	C2828.373291,853.845459 2830.444336,851.341492 2832.063477,848.692017 
	C2834.013428,845.500854 2836.449951,844.156494 2840.819824,845.369629 
z"/>
<path fill="#FFFFFF" opacity="1.000000" stroke="none" 
	d="
M2920.371338,739.198120 
	C2915.614746,747.399658 2910.197510,755.153015 2904.752930,762.887146 
	C2903.443115,764.747620 2902.041992,766.543762 2900.149902,768.652283 
	C2899.387207,767.408386 2898.523926,765.620972 2899.028076,764.396545 
	C2903.058350,754.605347 2909.368896,746.334290 2916.884766,738.969421 
	C2917.401367,738.463196 2918.742920,738.798828 2920.371338,739.198120 
z"/>
<path fill="#FFFFFF" opacity="1.000000" stroke="none" 
	d="
M2874.492920,801.236938 
	C2869.045898,809.987549 2862.912354,818.268921 2856.231445,826.789734 
	C2855.413574,825.518555 2854.377197,823.492371 2854.992432,822.578918 
	C2859.848389,815.369568 2864.957275,808.325684 2870.187988,801.381226 
	C2870.722900,800.671082 2872.568848,800.948608 2874.492920,801.236938 
z"/>
<path fill="#FFFFFF" opacity="1.000000" stroke="none" 
	d="
M3202.026367,1009.155640 
	C3202.462402,1006.414978 3203.450928,1004.339233 3203.259277,1002.378845 
	C3202.915039,998.859009 3201.862305,995.408447 3201.022461,991.119629 
	C3201.913086,990.335632 3203.164062,989.987305 3203.804932,990.462097 
	C3205.265381,991.544006 3207.359619,992.910828 3207.545410,994.371765 
	C3208.280518,1000.152893 3209.612305,1006.321472 3208.266113,1011.735474 
	C3207.416748,1015.150879 3202.944092,1015.006287 3202.026367,1009.155640 
z"/>
<path fill="#FFFFFF" opacity="1.000000" stroke="none" 
	d="
M2854.401855,827.213989 
	C2851.087891,833.615784 2847.097168,839.554688 2842.497070,845.488525 
	C2839.031006,840.886414 2838.901855,836.572510 2844.276855,833.997986 
	C2848.027100,832.201721 2847.913574,825.616089 2854.401855,827.213989 
z"/>
<path fill="#FFFFFF" opacity="1.000000" stroke="none" 
	d="
M3087.109375,1002.157104 
	C3089.436035,1004.025452 3091.046143,1006.046875 3093.327637,1008.262085 
	C3093.164062,1012.639893 3090.725586,1015.576355 3086.709473,1012.825745 
	C3082.829590,1010.168701 3082.300537,1005.950806 3087.109375,1002.157104 
z"/>
<path fill="#DCFEFF" opacity="1.000000" stroke="none" 
	d="
M392.577698,1224.757202 
	C402.714264,1224.069336 413.466370,1223.943359 425.159668,1223.938599 
	C423.331390,1224.728394 420.564758,1225.948364 417.792053,1225.962280 
	C409.593750,1226.003540 401.393005,1225.568115 392.577698,1224.757202 
z"/>
<path fill="#FEFFFF" opacity="1.000000" stroke="none" 
	d="
M2705.956543,717.863892 
	C2715.728760,717.507446 2726.525146,717.187744 2738.095703,717.323975 
	C2728.239990,717.820068 2717.610352,717.860413 2705.956543,717.863892 
z"/>
<path fill="#DCFEFF" opacity="1.000000" stroke="none" 
	d="
M1026.717285,1257.059570 
	C1036.076660,1256.464111 1046.095337,1256.349976 1057.026611,1256.419800 
	C1047.751587,1256.916016 1037.564087,1257.228516 1026.717285,1257.059570 
z"/>
<path fill="#FFFFFF" opacity="1.000000" stroke="none" 
	d="
M3130.452637,667.916992 
	C3128.237549,667.357727 3126.730469,666.700500 3124.612549,665.867798 
	C3124.411377,662.327026 3125.937988,659.867615 3129.671631,660.431824 
	C3131.024902,660.636230 3133.043701,662.162354 3133.176758,663.274658 
	C3133.345947,664.688843 3131.906982,666.295410 3130.452637,667.916992 
z"/>
<path fill="#FFFFFF" opacity="1.000000" stroke="none" 
	d="
M3200.084961,982.050415 
	C3198.567383,979.321411 3197.813477,976.459106 3197.042480,972.841248 
	C3204.942871,974.352295 3205.655273,976.184082 3200.084961,982.050415 
z"/>
<path fill="#FFFFFF" opacity="1.000000" stroke="none" 
	d="
M2952.437012,697.217896 
	C2951.019043,700.645325 2948.897217,703.604553 2946.230713,706.798584 
	C2944.381104,700.399414 2945.489990,698.513977 2952.437012,697.217896 
z"/>
<path fill="#FFFFFF" opacity="1.000000" stroke="none" 
	d="
M3173.789307,864.034851 
	C3172.338379,861.502991 3171.610840,858.673401 3170.837402,855.101807 
	C3178.809814,855.920105 3179.428711,857.479553 3173.789307,864.034851 
z"/>
<path fill="#DCFEFF" opacity="1.000000" stroke="none" 
	d="
M684.868652,344.327209 
	C678.419800,344.791046 671.277283,344.971069 663.311218,344.834534 
	C669.716736,344.359741 676.945862,344.201538 684.868652,344.327209 
z"/>
<path fill="#FFFFFF" opacity="1.000000" stroke="none" 
	d="
M3149.458008,754.160278 
	C3148.072754,752.076965 3147.495361,749.892578 3146.885742,747.021851 
	C3149.983398,746.066833 3152.990479,746.542480 3153.366211,750.214844 
	C3153.485352,751.378296 3151.362793,752.771240 3149.458008,754.160278 
z"/>
<path fill="#FFFFFF" opacity="1.000000" stroke="none" 
	d="
M3145.473877,736.159973 
	C3144.085693,734.078125 3143.504150,731.893555 3142.888428,729.022217 
	C3145.981934,728.065552 3148.985352,728.542969 3149.367676,732.207825 
	C3149.489014,733.370911 3147.372803,734.767517 3145.473877,736.159973 
z"/>
<path fill="#FFFFFF" opacity="1.000000" stroke="none" 
	d="
M3157.451416,790.161621 
	C3156.053711,788.082520 3155.465576,785.901917 3154.847168,783.035156 
	C3157.952881,782.063782 3160.971191,782.521667 3161.363281,786.204773 
	C3161.486816,787.366638 3159.358643,788.768250 3157.451416,790.161621 
z"/>
<path fill="#FFFFFF" opacity="1.000000" stroke="none" 
	d="
M3141.474365,718.159607 
	C3140.085938,716.077637 3139.504150,713.893250 3138.888184,711.022156 
	C3141.981445,710.065735 3144.985352,710.542114 3145.367432,714.207458 
	C3145.488770,715.370850 3143.373047,716.767395 3141.474365,718.159607 
z"/>
<path fill="#FFFFFF" opacity="1.000000" stroke="none" 
	d="
M3137.484863,700.158447 
	C3136.105469,698.074341 3135.531494,695.887451 3134.918701,693.013794 
	C3138.002930,692.066711 3140.996826,692.557617 3141.371094,696.211914 
	C3141.490479,697.375854 3139.380371,698.768005 3137.484863,700.158447 
z"/>
<path fill="#FFFFFF" opacity="1.000000" stroke="none" 
	d="
M3133.489746,682.158447 
	C3132.108154,680.075012 3131.531250,677.888123 3130.916992,675.014160 
	C3134.001709,674.066223 3136.994873,674.557007 3137.371338,678.209167 
	C3137.491211,679.373108 3135.383057,680.766541 3133.489746,682.158447 
z"/>
<path fill="#FFFFFF" opacity="1.000000" stroke="none" 
	d="
M2958.462402,689.221436 
	C2957.710693,691.944580 2956.200928,694.195618 2954.160645,696.707275 
	C2951.423096,690.829529 2951.815674,690.037659 2958.462402,689.221436 
z"/>
<path fill="#DCFEFF" opacity="1.000000" stroke="none" 
	d="
M2698.942871,1016.121155 
	C2702.835938,1015.463257 2707.565918,1014.872559 2713.120117,1014.427368 
	C2709.222900,1015.111389 2704.501221,1015.649841 2698.942871,1016.121155 
z"/>
<path fill="#DCFEFF" opacity="1.000000" stroke="none" 
	d="
M2145.809082,843.783203 
	C2143.116455,843.550354 2140.497559,842.618958 2137.878418,841.687561 
	C2137.975830,841.265381 2138.073242,840.843262 2138.170654,840.421143 
	C2140.338135,840.283264 2142.505371,840.145447 2145.364746,840.144104 
	C2145.998779,841.215271 2145.940674,842.149902 2145.809082,843.783203 
z"/>
<path fill="#FFFFFF" opacity="1.000000" stroke="none" 
	d="
M3169.397461,844.071167 
	C3168.049072,842.207520 3167.449951,839.977722 3166.820312,837.048950 
	C3172.718506,837.591248 3172.824463,837.823364 3169.397461,844.071167 
z"/>
<path fill="#DCFEFF" opacity="1.000000" stroke="none" 
	d="
M1628.956299,1016.127319 
	C1632.844360,1015.483032 1637.567139,1014.905396 1643.112305,1014.474792 
	C1639.220093,1015.145813 1634.505493,1015.669861 1628.956299,1016.127319 
z"/>
<path fill="#FFFFFF" opacity="1.000000" stroke="none" 
	d="
M3165.397461,826.071167 
	C3164.049072,824.207520 3163.449951,821.977661 3162.821289,819.048828 
	C3168.718750,819.591553 3168.824707,819.823975 3165.397461,826.071167 
z"/>
<path fill="#FFFFFF" opacity="1.000000" stroke="none" 
	d="
M3161.416748,808.067810 
	C3160.073486,806.203979 3159.476074,803.971680 3158.847168,801.039795 
	C3164.717041,801.601685 3164.818115,801.824219 3161.416748,808.067810 
z"/>
<path fill="#FFFFFF" opacity="1.000000" stroke="none" 
	d="
M3153.416504,772.067688 
	C3152.073486,770.203979 3151.475830,767.971619 3150.847168,765.039795 
	C3156.716797,765.601868 3156.818115,765.824463 3153.416504,772.067688 
z"/>
<path fill="#DCFEFF" opacity="1.000000" stroke="none" 
	d="
M1566.644287,1014.999146 
	C1570.204834,1014.817932 1574.363281,1015.118103 1579.201660,1015.738892 
	C1575.668335,1015.866516 1571.455444,1015.673523 1566.644287,1014.999146 
z"/>
<path fill="#DCFEFF" opacity="1.000000" stroke="none" 
	d="
M2634.651367,1015.018311 
	C2638.213379,1014.828308 2642.376709,1015.115784 2647.219238,1015.727539 
	C2643.683105,1015.866394 2639.467773,1015.681091 2634.651367,1015.018311 
z"/>
<path fill="#DCFEFF" opacity="1.000000" stroke="none" 
	d="
M2026.664062,869.029541 
	C2030.271240,868.784729 2034.489746,869.010864 2039.387451,869.604492 
	C2035.802856,869.814880 2031.539185,869.657715 2026.664062,869.029541 
z"/>
<path fill="#FFFFFF" opacity="1.000000" stroke="none" 
	d="
M3177.328613,880.119629 
	C3176.205322,878.781372 3175.793457,877.134644 3175.393555,874.845825 
	C3179.552979,874.537109 3181.288330,876.003601 3177.328613,880.119629 
z"/>
<path fill="#FFFFFF" opacity="1.000000" stroke="none" 
	d="
M3181.328369,898.119629 
	C3180.205322,896.781311 3179.793701,895.134460 3179.394531,892.845581 
	C3183.554688,892.537415 3185.286865,894.005493 3181.328369,898.119629 
z"/>
<path fill="#FFFFFF" opacity="1.000000" stroke="none" 
	d="
M3185.333740,916.119141 
	C3184.209229,914.781799 3183.795410,913.135071 3183.393799,910.846008 
	C3187.550537,910.535706 3189.287354,912.000916 3185.333740,916.119141 
z"/>
<path fill="#FFFFFF" opacity="1.000000" stroke="none" 
	d="
M3193.316406,952.121460 
	C3192.181396,950.785645 3191.761230,949.142151 3191.353516,946.856934 
	C3195.520020,946.526672 3197.308105,947.964478 3193.316406,952.121460 
z"/>
<path fill="#FFFFFF" opacity="1.000000" stroke="none" 
	d="
M3197.316895,970.120972 
	C3196.180908,968.786255 3195.759766,967.143433 3195.348633,964.859070 
	C3199.512451,964.523560 3201.311768,965.954712 3197.316895,970.120972 
z"/>
<path fill="#FFFFFF" opacity="1.000000" stroke="none" 
	d="
M3189.315918,934.121460 
	C3188.181396,932.785828 3187.761475,931.142273 3187.354004,928.856934 
	C3191.521240,928.526733 3193.308350,929.965088 3189.315918,934.121460 
z"/>
<path fill="#DCFEFF" opacity="1.000000" stroke="none" 
	d="
M1002.636108,1255.030762 
	C1005.564697,1254.833252 1009.076904,1255.106445 1013.246277,1255.714722 
	C1010.342163,1255.867065 1006.780945,1255.684204 1002.636108,1255.030762 
z"/>
<path fill="#DCFEFF" opacity="1.000000" stroke="none" 
	d="
M1611.628296,652.108521 
	C1609.463501,652.732971 1606.524658,653.234558 1602.840576,653.575806 
	C1605.014893,652.938843 1607.934570,652.462219 1611.628296,652.108521 
z"/>
<path fill="#FEFFFF" opacity="1.000000" stroke="none" 
	d="
M2818.162598,874.272339 
	C2817.643555,875.963989 2816.369873,877.635254 2814.520996,879.565918 
	C2814.132324,877.366516 2813.820068,874.597717 2818.162598,874.272339 
z"/>
<path fill="#FEFFFF" opacity="1.000000" stroke="none" 
	d="
M2611.733643,765.713806 
	C2612.255371,763.987000 2613.550537,762.284729 2615.428955,760.314941 
	C2615.868164,762.575256 2616.206543,765.400452 2611.733643,765.713806 
z"/>
<path fill="#FEFFFF" opacity="1.000000" stroke="none" 
	d="
M2624.872559,752.005615 
	C2625.596191,750.578308 2627.069580,749.121887 2629.133789,747.426819 
	C2630.051270,750.235596 2628.803223,751.934021 2624.872559,752.005615 
z"/>
<path fill="#DCFEFF" opacity="1.000000" stroke="none" 
	d="
M1675.329224,652.947937 
	C1672.959229,653.220337 1670.015991,653.028687 1666.423340,652.489502 
	C1668.768066,652.255981 1671.761963,652.369995 1675.329224,652.947937 
z"/>
<path fill="#FEFFFF" opacity="1.000000" stroke="none" 
	d="
M2781.155762,912.001343 
	C2780.428955,913.440857 2778.945068,914.906982 2776.874512,916.631226 
	C2775.947021,913.822144 2777.158691,912.067566 2781.155762,912.001343 
z"/>
<path fill="#DCFEFF" opacity="1.000000" stroke="none" 
	d="
M386.840332,1224.140259 
	C387.716766,1223.921143 389.283539,1223.764648 391.267395,1223.887695 
	C390.299896,1224.179321 388.915283,1224.191162 386.840332,1224.140259 
z"/>
<path fill="#DCFEFF" opacity="1.000000" stroke="none" 
	d="
M695.547241,345.002899 
	C694.459412,345.463806 693.004028,345.530792 690.870605,345.314056 
	C691.854919,344.889923 693.517273,344.749451 695.547241,345.002899 
z"/>
<path fill="#DCFEFF" opacity="1.000000" stroke="none" 
	d="
M502.451965,906.791626 
	C502.685791,907.319214 502.668121,908.101868 502.294586,909.070801 
	C502.025970,908.520264 502.113190,907.783569 502.451965,906.791626 
z"/>
<path fill="#DCFEFF" opacity="1.000000" stroke="none" 
	d="
M655.547485,344.830078 
	C655.030090,345.332306 654.187988,345.511261 652.709656,345.530396 
	C653.123169,345.082611 654.173035,344.794708 655.547485,344.830078 
z"/>
<path fill="#FEFFFF" opacity="1.000000" stroke="none" 
	d="
M2768.575195,721.015747 
	C2769.278320,720.770874 2770.411377,720.912659 2771.978760,721.449585 
	C2771.277100,721.697327 2770.141357,721.549927 2768.575195,721.015747 
z"/>
<path fill="#FEFFFF" opacity="1.000000" stroke="none" 
	d="
M2756.645752,719.089111 
	C2757.371582,718.799255 2758.571533,718.888489 2760.255371,719.368164 
	C2759.532715,719.661865 2758.326172,719.565002 2756.645752,719.089111 
z"/>
<path fill="#DCFEFF" opacity="1.000000" stroke="none" 
	d="
M2741.657715,653.058594 
	C2741.074219,653.482544 2740.211670,653.545532 2738.752441,653.338806 
	C2739.229980,652.945251 2740.304688,652.821411 2741.657715,653.058594 
z"/>
<path fill="#DCFEFF" opacity="1.000000" stroke="none" 
	d="
M2687.144531,651.868286 
	C2686.744629,652.110107 2685.701660,652.297180 2684.298828,652.271484 
	C2684.792969,651.976990 2685.647461,651.895325 2687.144531,651.868286 
z"/>
<path fill="#DCFEFF" opacity="1.000000" stroke="none" 
	d="
M538.839172,871.910889 
	C538.572021,872.249634 537.932312,872.550781 536.921448,872.755005 
	C537.189087,872.396545 537.827820,872.134949 538.839172,871.910889 
z"/>
<path fill="#DCFEFF" opacity="1.000000" stroke="none" 
	d="
M2673.711426,652.894592 
	C2673.910156,653.129517 2673.009033,653.543518 2672.527344,653.427490 
	C2672.352051,652.644531 2672.840820,652.427246 2673.711426,652.894592 
z"/>
<path fill="#DCFEFF" opacity="1.000000" stroke="none" 
	d="
M501.011536,910.158325 
	C501.417938,910.574341 501.231934,910.990051 500.398010,911.328369 
	C500.114349,910.925171 500.337402,910.560913 501.011536,910.158325 
z"/>
<path fill="#DCFEFF" opacity="1.000000" stroke="none" 
	d="
M1617.421875,651.955078 
	C1617.941528,651.997681 1617.227417,652.504700 1617.227417,652.504700 
	C1617.227417,652.504700 1616.326904,652.503906 1616.101074,652.299866 
	C1616.217529,652.034790 1616.559814,651.973694 1617.421875,651.955078 
z"/>
<path fill="#FEFFFF" opacity="1.000000" stroke="none" 
	d="
M2657.488281,952.956543 
	C2657.191406,953.207703 2656.521484,953.122375 2655.502930,952.643433 
	C2655.807861,952.373230 2656.461670,952.496643 2657.488281,952.956543 
z"/>
<path fill="#DCFEFF" opacity="1.000000" stroke="none" 
	d="
M2680.017578,652.135742 
	C2680.043457,652.717285 2679.589844,652.954834 2678.676758,652.702271 
	C2678.742432,652.171326 2679.182617,652.031189 2680.017578,652.135742 
z"/>
<path fill="#DCFEFF" opacity="1.000000" stroke="none" 
	d="
M540.877197,870.156494 
	C541.204773,870.508667 541.047913,870.840515 540.359009,871.076904 
	C540.141663,870.736633 540.330200,870.454895 540.877197,870.156494 
z"/>
<path fill="#DCFEFF" opacity="1.000000" stroke="none" 
	d="
M542.907715,868.311035 
	C543.292908,868.722229 543.132996,869.068237 542.383667,869.273926 
	C542.127319,868.879517 542.316711,868.583557 542.907715,868.311035 
z"/>
<path fill="#FEFFFF" opacity="1.000000" stroke="none" 
	d="
M2700.578613,954.272583 
	C2700.504395,954.655884 2699.887695,955.044739 2698.714355,955.339233 
	C2698.783691,954.922668 2699.410156,954.600403 2700.578613,954.272583 
z"/>
<path fill="#DCFEFF" opacity="1.000000" stroke="none" 
	d="
M2733.281250,652.214661 
	C2733.576904,652.352112 2732.988037,652.805420 2732.988037,652.805420 
	C2732.988037,652.805420 2732.253174,652.692566 2731.977051,652.440186 
	C2732.115967,651.994934 2732.543945,651.958069 2733.281250,652.214661 
z"/>
<path fill="#FEFFFF" opacity="1.000000" stroke="none" 
	d="
M2669.415039,954.915283 
	C2669.097412,955.216187 2668.351807,955.182190 2667.221924,954.712891 
	C2667.554199,954.378540 2668.270752,954.479492 2669.415039,954.915283 
z"/>
<path fill="#FEFFFF" opacity="1.000000" stroke="none" 
	d="
M2689.716064,719.760620 
	C2689.613037,719.163818 2690.145996,718.819763 2691.324707,718.807983 
	C2691.373535,719.375427 2690.834229,719.666504 2689.716064,719.760620 
z"/>
<path fill="#FEFFFF" opacity="1.000000" stroke="none" 
	d="
M2712.012695,952.177795 
	C2712.128662,952.692322 2711.677246,953.036804 2710.640137,953.112427 
	C2710.581055,952.615417 2711.044922,952.336792 2712.012695,952.177795 
z"/>
<path fill="#FCFEFF" opacity="1.000000" stroke="none" 
	d="
M3045.785645,864.133057 
	C3014.934814,864.133118 2985.057617,864.133118 2953.614746,864.133118 
	C2981.128662,823.074585 3007.710205,783.407532 3034.431885,743.530945 
	C3038.086426,749.421204 3058.516602,847.655945 3059.561279,864.132996 
	C3055.255371,864.132996 3051.007324,864.132996 3045.785645,864.133057 
z"/>
<path fill="#FDFFFF" opacity="1.000000" stroke="none" 
	d="
M1677.644775,722.169250 
	C1702.521362,736.656799 1717.110596,758.007507 1722.299805,785.110962 
	C1732.519165,838.487244 1719.257202,885.634216 1681.148438,924.722778 
	C1662.385254,943.968262 1638.916504,954.588379 1611.719604,956.052490 
	C1572.449341,958.166565 1539.651855,935.447632 1525.781738,898.641724 
	C1514.250244,868.041870 1515.824951,837.156433 1524.853638,806.418396 
	C1533.228394,777.907043 1548.000366,753.106018 1572.047119,735.125305 
	C1604.273926,711.027832 1639.150879,703.715149 1677.644775,722.169250 
z"/>
<path fill="#FCFEFF" opacity="1.000000" stroke="none" 
	d="
M2072.907715,813.044922 
	C2052.801025,813.186340 2033.602539,813.186340 2013.340820,813.186340 
	C2014.479614,806.561157 2015.293213,801.046265 2016.389893,795.588257 
	C2020.319946,776.027588 2024.325684,756.482056 2028.342285,736.938904 
	C2030.992676,724.042969 2033.487549,721.893860 2046.256836,721.859680 
	C2061.240234,721.819641 2076.227295,721.764282 2091.206787,722.035522 
	C2103.070068,722.250366 2114.241699,725.384033 2124.325684,731.755432 
	C2146.856445,745.990906 2150.139648,770.776855 2132.020752,790.458191 
	C2122.180420,801.147034 2109.378662,806.685669 2095.520264,809.765564 
	C2088.404785,811.346985 2081.058350,811.890869 2072.907715,813.044922 
z"/>
</svg>